

<?xml version="1.0" encoding="UTF-8"?><svg id="Layer_2" xmlns="http://www.w3.org/2000/svg" xmlns:xlink="http://www.w3.org/1999/xlink" viewBox="0 0 1596.58 1280.42"><defs><style>.cls-1{mask:url(#mask);}.cls-2,.cls-3{fill:#fff;}.cls-4{fill:#e5f2fd;}.cls-5{fill:#cf6678;}.cls-6,.cls-7{fill:#06dac5;}.cls-8{fill:#6200ee;}.cls-8,.cls-9,.cls-7,.cls-10,.cls-11,.cls-12,.cls-13,.cls-3{fill-rule:evenodd;}.cls-9{fill:#4e2c89;}.cls-10{fill:#121212;}.cls-11{fill:#b0001f;}.cls-12{fill:#fbcfa0;}.cls-13{fill:#ba86fc;}</style><mask id="mask" x="0" y="0" width="1596.58" height="1280.42" maskUnits="userSpaceOnUse"><g id="mask0_203_908"><path class="cls-2" d="m1596.58,0H0v1280.42h1596.57V0Z"/></g></mask></defs><g id="Layer_1-2"><g class="cls-1"><g><path class="cls-13" d="m1403.27,668.6c-209.39-120.01-72.01-166.46-102.09-405.24-121.71-966.37-2599.32,1040.24-383.48,1006.31,514.51-7.88,799.32-421.25,485.57-601.07h0Z"/><path class="cls-11" d="m1534.01,664.64c5.83-.78,62.57,10.13,62.57,10.13l-25.55,24.49-189.56,48.01,25.55-24.49,81.38-53.99,45.61-4.15Z"/><path class="cls-9" d="m874.64,802.5s-34.51,95.78-29.8,120.9h45.49s-15.69-82.43,26.67-143.67c42.35-61.23-42.36,22.77-42.36,22.77Z"/><path class="cls-9" d="m1197.27,349.99c-87.82-13.28-175.64-26.56-263.47-39.86-132.56-20.07-265.14-40.13-397.69-60.19l-35.42-5.36v663.75l35.42-5.36c132.58-20.07,265.17-40.12,397.77-60.2,87.8-13.29,175.6-26.58,263.41-39.86l26.21-3.97v-444.99l-26.21-3.97h-.02Z"/><path class="cls-3" d="m929.19,340.62c-113.32-17.15-244.44-37-397.7-60.19v592.03c153.2-23.18,284.37-43.03,397.76-60.19,98.78-14.95,186.06-28.16,263.41-39.87v-391.92c-77.43-11.71-164.69-24.91-263.47-39.86h0Z"/><path class="cls-9" d="m1421.19,627.16c-172.99,95.32-270.35,136.42-466.03,89.26l119.45-134.12c144.46,46.86,195.21,51.42,332.28-1.98l14.31,46.84Z"/><path class="cls-6" d="m587.86,599.33c-9.26,0-16.85,7.59-16.85,16.86s7.58,16.87,16.85,16.87,16.85-7.59,16.85-16.87-7.58-16.86-16.85-16.86Z"/><path class="cls-6" d="m890.77,532.19c-.06-.18-.23-.31-.43-.31h-212.18c-9.27,0-16.85,7.59-16.85,16.86s7.58,16.87,16.85,16.87h126.98c9.27,0,16.85,7.59,16.85,16.86s-7.58,16.87-16.85,16.87h-158.03c-9.27,0-16.85,7.59-16.85,16.86s7.58,16.87,16.85,16.87h80.65c9.26,0,16.85,7.59,16.85,16.86s-7.58,16.87-16.85,16.87h-27.78c-28.1,49.82-51.91,113.48-72.95,191.22l302.23-45.74,6.92-1.05c-2.73-25.22.87-48.29,13.54-68.29,46.2-35.17,73.36-78.74,81.42-117.59,25.78,3.83,46.07,7.01,46.07,7.01l12.84-52.17c-77.73-34.87-143.33-50.94-199.28-48Z"/><path class="cls-11" d="m1382.71,471.18l-41.29-7.94-19.44,42.68,59.49,241.34,25.55-24.49,3.09-125.9-27.4-125.7Z"/><path class="cls-5" d="m1530.97,415.23l-189.55,48.01,65.61,259.53,189.56-48.01-65.61-259.53Z"/><path class="cls-12" d="m1386.41,609.5l27.59-13.57,17.91-36.34s10.64,7.75,10.64,11.63-2.9,17.44-2.9,17.44l51.81-.8c4.27-.07-12.5,44.65-19.36,44.09l-37.29-3.08-36.72,12.25-11.69-31.63Z"/><path class="cls-12" d="m924.82,479.26l-30.44,89.12s3.6,17.55,33.91,31.06c30.3,13.5,35.39,7.68,35.39,7.68l22.74-73.49-61.6-54.37h0Z"/><path class="cls-10" d="m920.05,481.49l5.34,17.99c6.71,22.61-44.68-17.83-38.68-84.66,1.49-16.61,6.64-25.55,6.64-25.55l59.81,22.23-33.11,70Z"/><path class="cls-12" d="m1064.76,417.94c-6.38-63.18-114.88-52.64-114.88-52.64l-20.8,61.92s-6.06-7.01-15.6-.54c-8.59,5.83-11.22,25.65,4.77,46.47,0,0-8.92,29.47,1.99,42.83,4.77,5.84,18.75,26.91,42.13,35.76,30.07,11.4,70.36,10.18,70.36,10.18,0,0,38.41-80.81,32.04-143.99Z"/><path class="cls-7" d="m1065.45,415.7c6.45-72.18-47.96-108.24-99.37-104.51-50.69,3.68-81.42,49.44-80.39,99.47,0,0,132.96,16.4,159.36,18.56,26.39,2.16,81.73,3.66,81.73,3.66l.99-12.09-62.32-5.11Z"/><path class="cls-8" d="m1405.76,594c-148.64,57.5-206.57,59.53-355.62,9.28l-120.99,132.74c202.52,51.29,300.22,6.3,487.13-94.69l-10.52-47.32h.01Z"/><path class="cls-7" d="m890.97,542.16l170.08,62.31-45.63,164.72-210.17-42.13,85.72-184.91Z"/><path class="cls-4" d="m777.82,759.93c.22-.09,74.97-36.03,164.53-5.37l-5.24,8.27c-85.87-29.39-155.05,5.61-155.26,5.71l-4.05-8.6h.01Z"/><path class="cls-9" d="m894.26,895.92c-91.83,0-166.27,18.28-166.27,40.83s74.44,40.82,166.27,40.82,166.28-18.28,166.28-40.82-74.44-40.83-166.28-40.83Z"/><path class="cls-9" d="m1247.37,924.86l-573.43,200.79,346.01,154.77,348.79-323.01-121.38-32.55Z"/><path class="cls-7" d="m467.72,860.29h-115.12c10.56,56.04,19.36,102.71,26.78,142.12,6.35,33.7,11.86,62.94,16.66,88.43h143.43c4.81-25.52,10.32-54.73,16.67-88.43,7.42-39.4,16.22-86.07,26.77-142.12h-115.21,0Z"/><path class="cls-9" d="m467.72,860.29h-115.12l13.52,71.75h203.29l13.52-71.75h-115.21,0Z"/><path class="cls-9" d="m560.59,848c37.96-45.21,64.42-109.57,41.39-161.07-22.92-51.3-90.29-76.78-115.2-17.74-12.58,29.79,12.24,86.44-24.77,170.74l6.24,8.08h92.35,0Z"/><path class="cls-13" d="m513.96,848c38.37-55.01,75.49-136.09,34.77-210.36-3.2-.96-6.41-1.66-9.62-2.07,45.13,74.44,5.26,157.63-33.99,212.42h8.85Z"/><path class="cls-7" d="m472.56,548.77c-59.02-42.03-150.59-26.25-139.7,55.73,6.04,45.48,83.57,97.44,86.63,243.5h78.29c48.02-70.51,62.92-236.49-25.22-299.23h0Z"/><path class="cls-3" d="m381.12,528.85c-4.18,1.03-8.2,2.36-12.03,3.99,123.14,66.29,108.49,234.14,93.09,315.15h9.51c15.3-82.1,28.8-248.03-90.57-319.15h0Z"/><path class="cls-9" d="m458.49,848c12.16-65.46-25-185.05-104.98-204.42-54.56-13.23-115.91,24.52-84.49,80.37,15.85,28.18,75.81,43.18,119.8,124.05h69.68Z"/><path class="cls-13" d="m281.98,655.6c-2.71,1.95-5.23,4.06-7.51,6.34,100.22,11.36,139.87,120.42,154.75,186.06h7.42c-14.71-65.76-54.22-176.58-154.66-192.4Z"/></g></g></g></svg>