<?xml version="1.0" encoding="UTF-8"?><svg id="Layer_1" xmlns="http://www.w3.org/2000/svg" xmlns:xlink="http://www.w3.org/1999/xlink" viewBox="0 0 1038.49 912.41"><defs><style>.cls-1{mask:url(#mask);}.cls-2,.cls-3{fill:#fff;}.cls-4{fill:#e5f2fd;}.cls-5{fill:#cf6678;}.cls-6,.cls-7{fill:#60bff4;}.cls-8{fill:#6200ee;}.cls-8,.cls-7,.cls-9,.cls-10,.cls-11,.cls-12,.cls-13,.cls-3{fill-rule:evenodd;}.cls-9{fill:#4e2c89;}.cls-10{fill:#121212;}.cls-11{fill:#b0001f;}.cls-12{fill:#fbcfa0;}.cls-13{fill:#ba86fc;}</style><mask id="mask" x="97.4" y="107.23" width="879.98" height="705.72" maskUnits="userSpaceOnUse"><g id="mask0_203_908"><path class="cls-2" d="m977.37,107.23H97.4v705.72h879.97V107.23Z"/></g></mask></defs><g class="cls-1"><path class="cls-13" d="m870.83,475.74c-115.41-66.15-39.69-91.75-56.27-223.35-67.08-532.63-1432.65,573.34-211.36,554.64,283.58-4.34,440.56-232.18,267.63-331.29h0Z"/><path class="cls-11" d="m942.88,473.56c3.21-.43,34.49,5.58,34.49,5.58l-14.08,13.5-104.48,26.46,14.08-13.5,44.85-29.76,25.14-2.29Z"/><path class="cls-9" d="m579.47,549.54s-19.02,52.79-16.42,66.64h25.07s-8.65-45.43,14.7-79.19c23.34-33.75-23.35,12.55-23.35,12.55Z"/><path class="cls-9" d="m757.29,300.13c-48.4-7.32-96.81-14.64-145.21-21.97-73.06-11.06-146.13-22.12-219.19-33.18l-19.52-2.96v365.84l19.52-2.95c73.08-11.06,146.15-22.12,219.23-33.18,48.39-7.33,96.78-14.65,145.18-21.97l14.45-2.19v-245.26l-14.45-2.19h0Z"/><path class="cls-3" d="m609.53,294.97c-62.46-9.45-134.73-20.39-219.2-33.18v326.3c84.44-12.78,156.74-23.72,219.23-33.17,54.44-8.24,102.55-15.52,145.18-21.97v-216.01c-42.67-6.45-90.77-13.73-145.22-21.97h0Z"/><path class="cls-9" d="m880.71,452.9c-95.34,52.54-149.01,75.19-256.86,49.19l65.84-73.92c79.62,25.83,107.59,28.34,183.14-1.09l7.89,25.82Z"/><path class="cls-6" d="m421.4,437.56c-5.11,0-9.28,4.18-9.28,9.29s4.18,9.3,9.28,9.3,9.29-4.18,9.29-9.3-4.18-9.29-9.29-9.29Z"/><path class="cls-6" d="m588.35,400.56c-.03-.1-.13-.17-.24-.17h-116.95c-5.11,0-9.29,4.18-9.29,9.29s4.18,9.3,9.29,9.3h69.99c5.11,0,9.29,4.18,9.29,9.29s-4.18,9.3-9.29,9.3h-87.1c-5.11,0-9.29,4.18-9.29,9.29s4.18,9.3,9.29,9.3h44.45c5.11,0,9.28,4.18,9.28,9.29s-4.18,9.3-9.28,9.3h-15.31c-15.49,27.46-28.61,62.54-40.21,105.39l166.58-25.21,3.82-.58c-1.5-13.9.48-26.62,7.46-37.64,25.46-19.38,40.44-43.4,44.88-64.81,14.21,2.11,25.39,3.87,25.39,3.87l7.08-28.75c-42.84-19.22-79-28.08-109.84-26.45Z"/><path class="cls-11" d="m859.5,366.93l-22.76-4.37-10.71,23.52,32.79,133.02,14.08-13.5,1.7-69.39-15.1-69.28Z"/><path class="cls-5" d="m941.21,336.09l-104.48,26.46,36.16,143.04,104.48-26.46-36.16-143.04Z"/><path class="cls-12" d="m861.53,443.17l15.21-7.48,9.87-20.03s5.87,4.27,5.87,6.41-1.6,9.61-1.6,9.61l28.56-.44c2.35-.04-6.89,24.61-10.67,24.3l-20.55-1.7-20.24,6.75-6.44-17.43Z"/><path class="cls-12" d="m607.12,371.38l-16.78,49.12s1.98,9.67,18.69,17.12c16.7,7.44,19.5,4.23,19.5,4.23l12.53-40.5-33.95-29.97h0Z"/><path class="cls-10" d="m604.49,372.61l2.94,9.92c3.7,12.46-24.62-9.83-21.32-46.66.82-9.15,3.66-14.08,3.66-14.08l32.96,12.25-18.25,38.58Z"/><path class="cls-12" d="m684.25,337.59c-3.52-34.82-63.32-29.01-63.32-29.01l-11.47,34.13s-3.34-3.86-8.6-.3c-4.74,3.21-6.18,14.14,2.63,25.61,0,0-4.91,16.24,1.09,23.6,2.63,3.22,10.33,14.83,23.22,19.71,16.57,6.28,38.78,5.61,38.78,5.61,0,0,21.17-44.54,17.66-79.36Z"/><path class="cls-7" d="m684.63,336.35c3.55-39.78-26.43-59.66-54.77-57.6-27.94,2.03-44.88,27.25-44.31,54.83,0,0,73.28,9.04,87.83,10.23,14.55,1.19,45.04,2.02,45.04,2.02l.54-6.66-34.35-2.81Z"/><path class="cls-8" d="m872.2,434.63c-81.93,31.69-113.85,32.81-196.01,5.12l-66.69,73.16c111.62,28.27,165.47,3.47,268.49-52.19l-5.8-26.08h0Z"/><path class="cls-7" d="m588.47,406.05l93.74,34.34-25.15,90.79-115.84-23.22,47.25-101.91Z"/><path class="cls-4" d="m526.1,526.08c.12-.05,41.32-19.86,90.68-2.96l-2.89,4.56c-47.33-16.2-85.46,3.09-85.57,3.15l-2.23-4.74h0Z"/><path class="cls-9" d="m590.28,601.03c-50.61,0-91.64,10.08-91.64,22.5s41.03,22.5,91.64,22.5,91.64-10.07,91.64-22.5-41.03-22.5-91.64-22.5Z"/><path class="cls-9" d="m784.9,616.98l-316.05,110.67,190.71,85.3,192.24-178.03-66.9-17.94Z"/><path class="cls-7" d="m355.19,581.39h-63.45c5.82,30.89,10.67,56.61,14.76,78.33,3.5,18.58,6.54,34.69,9.18,48.74h79.06c2.65-14.07,5.69-30.16,9.19-48.74,4.09-21.71,8.94-47.44,14.76-78.33h-63.5,0Z"/><path class="cls-9" d="m355.19,581.39h-63.45l7.45,39.54h112.04l7.45-39.54h-63.5,0Z"/><path class="cls-9" d="m406.37,574.62c20.92-24.92,35.5-60.39,22.81-88.78-12.63-28.27-49.76-42.32-63.5-9.78-6.93,16.42,6.75,47.64-13.65,94.1l3.44,4.45h50.9,0Z"/><path class="cls-13" d="m380.67,574.62c21.15-30.32,41.61-75.01,19.16-115.94-1.76-.53-3.53-.91-5.3-1.14,24.87,41.03,2.9,86.88-18.74,117.08h4.88Z"/><path class="cls-7" d="m357.85,409.69c-32.53-23.16-83-14.47-77,30.72,3.33,25.07,46.06,53.7,47.75,134.21h43.15c26.47-38.86,34.68-130.34-13.9-164.93h0Z"/><path class="cls-3" d="m307.46,398.72c-2.3.57-4.52,1.3-6.63,2.2,67.87,36.53,59.8,129.05,51.31,173.7h5.24c8.43-45.25,15.88-136.7-49.92-175.9h0Z"/><path class="cls-9" d="m350.1,574.62c6.7-36.08-13.78-101.99-57.86-112.67-30.07-7.29-63.89,13.52-46.57,44.3,8.74,15.53,41.78,23.8,66.03,68.37h38.4Z"/><path class="cls-13" d="m252.81,468.58c-1.49,1.07-2.88,2.24-4.14,3.5,55.24,6.26,77.09,66.37,85.29,102.55h4.09c-8.11-36.24-29.88-97.32-85.24-106.04Z"/></g></svg>