<?xml version="1.0" encoding="UTF-8"?><svg id="Layer_1" xmlns="http://www.w3.org/2000/svg" viewBox="0 0 1043.74 843.29"><defs><style>.cls-1,.cls-2{fill:#e5f2fd;}.cls-3{fill:#daad73;}.cls-4,.cls-5{fill:#113f76;}.cls-6{fill:#0e3c5f;}.cls-6,.cls-7,.cls-5,.cls-8,.cls-9,.cls-10,.cls-11,.cls-12,.cls-13,.cls-14,.cls-15,.cls-2{fill-rule:evenodd;}.cls-7{fill:#0a2b4c;}.cls-8{fill:#225d7d;}.cls-9{fill:#cc9c68;}.cls-10{fill:#cadae5;}.cls-11{fill:#bf8755;}.cls-12{fill:#bf0015;}.cls-13{fill:#a5b9c4;}.cls-14{fill:#fbcfa0;}.cls-15{fill:#fff;}</style></defs><path class="cls-12" d="m858.13,436.86c-115.89-66.35-39.86-92.04-56.5-224.06-67.36-534.32-1438.57,575.16-212.23,556.4,284.75-4.36,442.38-232.92,268.73-332.34Z"/><path class="cls-11" d="m930.48,434.67c3.23-.43,34.63,5.6,34.63,5.6l-14.14,13.54-104.91,26.55,14.14-13.54,45.04-29.85,25.24-2.29Z"/><path class="cls-10" d="m565.56,510.89s-19.1,52.96-16.49,66.85h25.18s-8.68-45.58,14.76-79.44c23.44-33.86-23.44,12.59-23.44,12.59Z"/><path class="cls-10" d="m744.11,260.69c-48.61-7.34-97.21-14.69-145.81-22.04-73.37-11.1-146.74-22.19-220.1-33.28l-19.61-2.96v367l19.61-2.97c73.38-11.1,146.76-22.18,220.14-33.28,48.59-7.35,97.18-14.7,145.78-22.04l14.51-2.19v-246.04l-14.51-2.19Z"/><path class="cls-15" d="m595.75,255.52c-62.72-9.49-135.28-20.46-220.1-33.28v327.34c84.78-12.82,157.38-23.79,220.14-33.28,54.67-8.27,102.97-15.57,145.78-22.04v-216.7c-42.85-6.47-91.15-13.77-145.82-22.04Z"/><path class="cls-13" d="m868.04,413.95c-95.74,52.7-149.62,75.43-257.92,49.35l66.11-74.16c79.95,25.91,108.04,28.43,183.9-1.1l7.92,25.9Z"/><path class="cls-4" d="m406.84,398.56c-5.13,0-9.32,4.2-9.32,9.32h0c0,5.13,4.2,9.32,9.32,9.32s9.33-4.2,9.33-9.32h0c0-5.13-4.2-9.32-9.33-9.32Z"/><path class="cls-4" d="m574.48,361.43c-.03-.1-.13-.17-.24-.17h-117.43c-5.13,0-9.32,4.2-9.32,9.32h0c0,5.13,4.2,9.33,9.32,9.33h70.28c5.13,0,9.32,4.2,9.32,9.32h0c0,5.13-4.2,9.33-9.32,9.33h-87.46c-5.13,0-9.32,4.2-9.32,9.32h0c0,5.13,4.2,9.32,9.32,9.32h44.64c5.13,0,9.32,4.2,9.32,9.33s-4.2,9.32-9.32,9.32h-15.37c-15.55,27.54-28.73,62.74-40.37,105.73l167.27-25.29,3.83-.58c-1.51-13.95.48-26.7,7.49-37.76,25.57-19.44,40.6-43.53,45.06-65.02,14.27,2.11,25.5,3.88,25.5,3.88l7.11-28.85c-43.02-19.28-79.32-28.17-110.29-26.54Z"/><polygon class="cls-9" points="846.75 327.7 823.89 323.32 813.14 346.91 846.06 480.36 860.2 466.82 861.91 397.2 846.75 327.7"/><rect class="cls-3" x="840.39" y="307.78" width="108.22" height="148.02" transform="translate(-66.32 231.08) rotate(-14.2)"/><path class="cls-14" d="m848.8,404.18l15.27-7.5,9.91-20.09s5.89,4.29,5.89,6.43-1.61,9.64-1.61,9.64l28.68-.44c2.36-.04-6.92,24.69-10.72,24.38l-20.64-1.7-20.32,6.77-6.47-17.49Z"/><path class="cls-14" d="m593.33,332.17l-16.85,49.28s1.99,9.71,18.77,17.17c16.77,7.47,19.59,4.25,19.59,4.25l12.58-40.63-34.09-30.07Z"/><path class="cls-6" d="m590.69,333.4l2.96,9.95c3.72,12.5-24.73-9.86-21.41-46.81.82-9.18,3.67-14.13,3.67-14.13l33.1,12.29-18.33,38.7Z"/><path class="cls-14" d="m670.78,298.27c-3.53-34.93-63.58-29.11-63.58-29.11l-11.51,34.24s-3.35-3.87-8.63-.3c-4.76,3.23-6.21,14.18,2.64,25.69,0,0-4.94,16.29,1.1,23.68,2.64,3.23,10.38,14.88,23.31,19.78,16.64,6.3,38.94,5.63,38.94,5.63,0,0,21.26-44.68,17.73-79.61Z"/><path class="cls-5" d="m671.16,297.03c3.57-39.91-26.54-59.85-54.99-57.78-28.05,2.04-45.06,27.33-44.49,55,0,0,73.58,9.07,88.19,10.26,14.61,1.2,45.23,2.02,45.23,2.02l.55-6.68-34.49-2.82Z"/><path class="cls-10" d="m859.5,395.61c-82.26,31.79-114.32,32.92-196.81,5.13l-66.96,73.39c112.08,28.36,166.15,3.48,269.6-52.36l-5.82-26.16Z"/><polygon class="cls-5" points="574.6 366.95 668.73 401.4 643.48 492.48 527.16 469.19 574.6 366.95"/><path class="cls-1" d="m511.97,487.36c.12-.06,41.49-19.92,91.06-2.97l-2.9,4.57c-47.52-16.25-85.81,3.1-85.92,3.16l-2.24-4.76Z"/><path class="cls-10" d="m576.42,562.55c-50.82,0-92.02,10.11-92.02,22.57s41.2,22.57,92.02,22.57,92.02-10.11,92.02-22.57-41.2-22.57-92.02-22.57Z"/><polygon class="cls-10" points="771.84 578.55 454.48 689.57 645.98 775.14 839.01 596.55 771.84 578.55"/><path class="cls-5" d="m340.35,542.84h-63.71c5.84,30.99,10.71,56.79,14.82,78.58,3.52,18.64,6.56,34.8,9.22,48.9h79.38c2.66-14.11,5.71-30.26,9.23-48.9,4.11-21.78,8.98-47.59,14.82-78.58h-63.76Z"/><path class="cls-7" d="m340.35,542.84h-63.71l7.48,39.67h112.51l7.48-39.67h-63.76Z"/><path class="cls-2" d="m391.75,536.05c21.01-25,35.65-60.58,22.91-89.06-12.68-28.36-49.97-42.45-63.76-9.81-6.96,16.47,6.77,47.79-13.71,94.4l3.45,4.47h51.11Z"/><path class="cls-8" d="m365.95,536.05c21.24-30.42,41.78-75.25,19.24-116.31-1.77-.53-3.55-.92-5.32-1.14,24.97,41.16,2.91,87.16-18.82,117.45h4.89Z"/><path class="cls-5" d="m343.03,370.6c-32.66-23.24-83.34-14.51-77.32,30.81,3.34,25.15,46.25,53.88,47.94,134.64h43.33c26.58-38.99,34.82-130.76-13.96-165.45Z"/><path class="cls-15" d="m292.43,359.59c-2.31.57-4.54,1.3-6.66,2.21,68.15,36.65,60.04,129.46,51.52,174.25h5.26c8.47-45.4,15.94-137.14-50.13-176.46Z"/><path class="cls-10" d="m335.24,536.05c6.73-36.2-13.84-102.32-58.1-113.03-30.2-7.31-64.15,13.56-46.76,44.44,8.78,15.58,41.95,23.87,66.3,68.59h38.56Z"/><path class="cls-5" d="m237.56,429.67c-1.5,1.08-2.9,2.25-4.16,3.51,55.47,6.28,77.41,66.58,85.64,102.87h4.11c-8.14-36.36-30-97.63-85.59-106.38Z"/></svg>