<svg width="303" height="243" viewBox="0 0 303 243" fill="none" xmlns="http://www.w3.org/2000/svg">
<g clip-path="url(#clip0_203_907)">
<mask id="mask0_203_907" style="mask-type:luminance" maskUnits="userSpaceOnUse" x="0" y="0" width="303" height="243">
<path d="M303 0H0V243H303V0Z" fill="white"/>
</mask>
<g mask="url(#mask0_203_907)">
<path fill-rule="evenodd" clip-rule="evenodd" d="M266.314 126.888C226.575 104.112 252.647 95.2971 246.939 49.9814C223.84 -133.419 -246.365 247.401 174.161 240.961C271.806 239.466 325.858 161.015 266.313 126.888H266.314Z" fill="#BA86FC"/>
<path fill-rule="evenodd" clip-rule="evenodd" d="M291.125 126.137C292.231 125.989 303 128.06 303 128.06L298.151 132.708L262.176 141.819L267.025 137.171L282.469 126.924L291.125 126.137Z" fill="#B0001F"/>
<path fill-rule="evenodd" clip-rule="evenodd" d="M165.99 152.3C165.99 152.3 159.441 170.477 160.335 175.245H168.968C168.968 175.245 165.99 159.601 174.029 147.979C182.067 136.358 165.99 152.3 165.99 152.3Z" fill="#4E2C89"/>
<path fill-rule="evenodd" clip-rule="evenodd" d="M227.218 66.4218C210.551 63.9017 193.884 61.3803 177.217 58.8578C152.059 55.049 126.899 51.2415 101.742 47.434L95.019 46.4165V172.385L101.742 171.368C126.904 167.559 152.067 163.753 177.231 159.944C193.894 157.421 210.556 154.9 227.221 152.379L232.195 151.626V67.1743L227.221 66.4218H227.218Z" fill="#4E2C89"/>
<path fill-rule="evenodd" clip-rule="evenodd" d="M176.341 64.6443C154.834 61.3891 129.951 57.6226 100.865 53.2205V165.577C129.939 161.177 154.834 157.411 176.352 154.154C195.098 151.316 211.662 148.81 226.342 146.588V72.2095C211.648 69.988 195.086 67.4828 176.34 64.6443H176.341Z" fill="white"/>
<path fill-rule="evenodd" clip-rule="evenodd" d="M269.715 119.024C236.885 137.114 218.407 144.914 181.27 135.963L203.939 110.51C231.354 119.403 240.987 120.268 266.999 110.134L269.715 119.024Z" fill="#4E2C89"/>
<path d="M111.564 113.743C109.806 113.743 108.367 115.183 108.367 116.943C108.367 118.703 109.806 120.144 111.564 120.144C113.323 120.144 114.762 118.703 114.762 116.943C114.762 115.183 113.323 113.743 111.564 113.743Z" fill="#06DAC5"/>
<path d="M169.05 101C169.039 100.965 169.006 100.941 168.969 100.941H128.701C126.942 100.941 125.503 102.381 125.503 104.141C125.503 105.901 126.942 107.342 128.701 107.342H152.799C154.558 107.342 155.997 108.782 155.997 110.542C155.997 112.302 154.558 113.743 152.799 113.743H122.807C121.048 113.743 119.609 115.183 119.609 116.943C119.609 118.703 121.048 120.144 122.807 120.144H138.113C139.871 120.144 141.31 121.584 141.31 123.344C141.31 125.104 139.871 126.545 138.113 126.545H132.841C127.509 135.999 122.989 148.081 118.997 162.835L176.354 154.155L177.668 153.956C177.15 149.169 177.833 144.791 180.237 140.996C189.004 134.322 194.16 126.053 195.689 118.679C200.582 119.405 204.433 120.01 204.433 120.01L206.87 110.109C192.118 103.492 179.669 100.441 169.05 101Z" fill="#06DAC5"/>
<path fill-rule="evenodd" clip-rule="evenodd" d="M262.412 89.4223L254.575 87.916L250.886 96.0161L262.176 141.819L267.025 137.171L267.612 113.277L262.412 89.4223Z" fill="#B0001F"/>
<path d="M290.549 78.8023L254.575 87.9138L267.026 137.168L303.001 128.056L290.549 78.8023Z" fill="#CF6678"/>
<path fill-rule="evenodd" clip-rule="evenodd" d="M263.114 115.672L268.351 113.097L271.75 106.201C271.75 106.201 273.77 107.672 273.77 108.408C273.77 109.143 273.219 111.718 273.219 111.718L283.052 111.566C283.862 111.553 280.68 120.04 279.377 119.933L272.3 119.349L265.332 121.674L263.114 115.672Z" fill="#FBCFA0"/>
<path fill-rule="evenodd" clip-rule="evenodd" d="M175.512 90.9547L169.735 107.869C169.735 107.869 170.418 111.2 176.17 113.764C181.921 116.326 182.886 115.222 182.886 115.222L187.202 101.275L175.512 90.956V90.9547Z" fill="#FBCFA0"/>
<path fill-rule="evenodd" clip-rule="evenodd" d="M174.607 91.3777L175.621 94.7921C176.895 99.0822 167.142 91.4075 168.281 78.7249C168.564 75.573 169.541 73.8751 169.541 73.8751L180.891 78.0931L174.607 91.3777Z" fill="#121212"/>
<path fill-rule="evenodd" clip-rule="evenodd" d="M202.07 79.3183C200.859 67.3273 180.267 69.3287 180.267 69.3287L176.319 81.0809C176.319 81.0809 175.169 79.7512 173.358 80.9789C171.727 82.0859 171.229 85.8474 174.263 89.798C174.263 89.798 172.571 95.3904 174.64 97.9255C175.546 99.0338 178.198 103.032 182.635 104.713C188.342 106.876 195.989 106.645 195.989 106.645C195.989 106.645 203.279 91.3093 202.07 79.3183Z" fill="#FBCFA0"/>
<path fill-rule="evenodd" clip-rule="evenodd" d="M202.202 78.8929C203.426 65.1941 193.1 58.3503 183.344 59.0593C173.724 59.7583 167.892 68.4418 168.088 77.9376C168.088 77.9376 193.321 81.0498 198.332 81.4602C203.341 81.8707 213.842 82.1556 213.842 82.1556L214.029 79.8619L202.202 78.8929Z" fill="#06DAC5"/>
<path fill-rule="evenodd" clip-rule="evenodd" d="M266.786 112.731C238.576 123.643 227.583 124.029 199.295 114.493L176.333 139.684C214.768 149.418 233.309 140.879 268.781 121.713L266.784 112.733L266.786 112.731Z" fill="#6200EE"/>
<path fill-rule="evenodd" clip-rule="evenodd" d="M169.088 102.893L201.366 114.719L192.707 145.98L152.82 137.985L169.088 102.893Z" fill="#06DAC5"/>
<path d="M147.615 144.221C147.656 144.203 161.843 137.384 178.84 143.201L177.846 144.771C161.549 139.194 148.421 145.836 148.381 145.854L147.613 144.221H147.615Z" fill="#E5F2FD"/>
<path fill-rule="evenodd" clip-rule="evenodd" d="M169.712 170.03C152.285 170.03 138.157 173.5 138.157 177.779C138.157 182.058 152.285 185.525 169.712 185.525C187.14 185.525 201.268 182.056 201.268 177.779C201.268 173.501 187.14 170.03 169.712 170.03Z" fill="#4E2C89"/>
<path fill-rule="evenodd" clip-rule="evenodd" d="M236.726 175.522L127.899 213.628L193.566 243L259.761 181.699L236.726 175.522Z" fill="#4E2C89"/>
<path fill-rule="evenodd" clip-rule="evenodd" d="M88.7633 163.268H66.9155C68.9188 173.904 70.5889 182.76 71.9982 190.239C73.2036 196.635 74.2487 202.183 75.1608 207.022H102.382C103.295 202.178 104.341 196.636 105.546 190.239C106.955 182.762 108.624 173.905 110.627 163.268H88.7621H88.7633Z" fill="#06DAC5"/>
<path fill-rule="evenodd" clip-rule="evenodd" d="M88.7633 163.268H66.9155L69.4817 176.884H108.062L110.627 163.268H88.7621H88.7633Z" fill="#4E2C89"/>
<path fill-rule="evenodd" clip-rule="evenodd" d="M106.388 160.935C113.593 152.355 118.613 140.141 114.243 130.366C109.894 120.631 97.1078 115.794 92.3793 127C89.9921 132.654 94.7019 143.404 87.6782 159.403L88.8625 160.936H106.389L106.388 160.935Z" fill="#4E2C89"/>
<path fill-rule="evenodd" clip-rule="evenodd" d="M97.5392 160.935C104.821 150.495 111.866 135.107 104.137 121.013C103.53 120.831 102.92 120.698 102.312 120.62C110.876 134.747 103.31 150.535 95.8604 160.934H97.538L97.5392 160.935Z" fill="#BA86FC"/>
<path fill-rule="evenodd" clip-rule="evenodd" d="M89.6817 104.146C78.4813 96.1703 61.1022 99.1643 63.1688 114.723C64.3145 123.355 79.0293 133.215 79.6096 160.935H94.4685C103.582 147.554 106.41 116.054 89.6829 104.146H89.6817Z" fill="#06DAC5"/>
<path fill-rule="evenodd" clip-rule="evenodd" d="M72.3287 100.367C71.5359 100.562 70.7716 100.814 70.0459 101.125C93.4148 113.705 90.6361 145.561 87.7133 160.935H89.5189C92.4219 145.353 94.9855 113.864 72.33 100.367H72.3287Z" fill="white"/>
<path fill-rule="evenodd" clip-rule="evenodd" d="M87.0109 160.935C89.3186 148.511 82.2663 125.816 67.0868 122.139C56.7326 119.629 45.0886 126.793 51.0523 137.392C54.0609 142.741 65.439 145.587 73.7874 160.935H87.0109Z" fill="#4E2C89"/>
<path fill-rule="evenodd" clip-rule="evenodd" d="M53.5128 124.421C52.9983 124.791 52.5199 125.192 52.0874 125.625C71.1081 127.781 78.6326 148.479 81.456 160.935H82.864C80.0716 148.455 72.5745 127.424 53.5128 124.421Z" fill="#BA86FC"/>
</g>
</g>
<defs>
<clipPath id="clip0_203_907">
<rect width="303" height="243" fill="white"/>
</clipPath>
</defs>
</svg>
